<svg width="1000" height="500" viewBox="0 0 1000 500" fill="none" xmlns="http://www.w3.org/2000/svg">
<g clip-path="url(#clip0_36_598)">
<rect width="1000" height="500" fill="#863DC0"/>
<rect x="-4" y="130" width="1024" height="240" fill="white"/>
<g clip-path="url(#clip1_36_598)">
<path d="M503.44 48.2627H502.444V51.3504H503.44V48.2627Z" fill="white"/>
<mask id="mask0_36_598" style="mask-type:luminance" maskUnits="userSpaceOnUse" x="469" y="40" width="62" height="61">
<path d="M531 40H469V101H531V40Z" fill="white"/>
</mask>
<g mask="url(#mask0_36_598)">
<path d="M510.269 51.3506V49.1472C509.924 48.9769 509.619 48.85 509.273 48.7051V51.3506H510.269Z" fill="white"/>
</g>
<path d="M513.706 51.1405V51.3507H512.71V50.481L513.706 51.1405Z" fill="white"/>
<mask id="mask1_36_598" style="mask-type:luminance" maskUnits="userSpaceOnUse" x="469" y="40" width="62" height="61">
<path d="M531 40H469V101H531V40Z" fill="white"/>
</mask>
<g mask="url(#mask1_36_598)">
<path d="M525.549 78.6543H474.438L474.865 79.8176L525.147 79.9408C525.291 79.5168 525.427 79.0892 525.549 78.6543Z" fill="white"/>
<path d="M474.955 62.7446C474.811 63.1723 474.678 63.5999 474.556 64.0312H525.549C525.427 63.5963 525.294 63.1686 525.15 62.7446H474.955Z" fill="white"/>
<path d="M478.265 76.5484C476.651 76.5484 475.239 76.0011 474.027 74.9103L475.102 73.6238C476.119 74.5117 477.187 74.9538 478.309 74.9538C478.859 74.9538 479.297 74.8378 479.621 74.6023C479.944 74.3667 480.106 74.055 480.106 73.6673V73.6383C480.106 73.2577 479.951 72.9569 479.642 72.7322C479.333 72.5076 478.722 72.2901 477.812 72.0727C477.234 71.9277 476.748 71.7791 476.36 71.6342C475.972 71.4892 475.623 71.2971 475.314 71.0652C475.005 70.8296 474.779 70.5469 474.638 70.2099C474.498 69.8729 474.426 69.4778 474.426 69.0176V68.9886C474.426 68.1116 474.75 67.3976 475.397 66.8468C476.044 66.2959 476.878 66.0205 477.892 66.0205C479.286 66.0205 480.512 66.4481 481.576 67.307L480.62 68.6661C479.682 67.963 478.761 67.6115 477.863 67.6115C477.36 67.6115 476.957 67.7274 476.659 67.9557C476.36 68.1841 476.209 68.474 476.209 68.8255V68.8545C476.209 69.2532 476.371 69.5648 476.695 69.7823C477.018 70.0033 477.658 70.228 478.618 70.4636C479.739 70.7354 480.566 71.1014 481.091 71.5544C481.619 72.0074 481.882 72.6453 481.882 73.4643V73.4933C481.882 74.4392 481.547 75.1857 480.879 75.733C480.21 76.2802 479.337 76.552 478.251 76.552" fill="white"/>
<path d="M483.726 76.4037V66.1621H487.73C488.909 66.1621 489.847 66.4738 490.545 67.0971C491.242 67.7204 491.591 68.5504 491.591 69.5832V69.6122C491.591 70.7139 491.206 71.5728 490.437 72.1889C489.667 72.805 488.697 73.1094 487.529 73.1094H485.512V76.4H483.726V76.4037ZM485.512 71.4895H487.586C488.255 71.4895 488.787 71.3191 489.182 70.9785C489.578 70.6378 489.775 70.1993 489.775 69.6629V69.6339C489.775 69.0505 489.581 68.5975 489.189 68.2822C488.798 67.9669 488.262 67.8074 487.586 67.8074H485.512V71.4931V71.4895Z" fill="white"/>
</g>
<path d="M491.128 76.4034L495.596 66.0894H497.25L501.718 76.4034H499.831L498.799 73.9318H493.997L492.951 76.4034H491.121H491.128ZM494.655 72.3372H498.152L496.398 68.242L494.658 72.3372H494.655Z" fill="white"/>
<mask id="mask2_36_598" style="mask-type:luminance" maskUnits="userSpaceOnUse" x="469" y="40" width="62" height="61">
<path d="M531 40H469V101H531V40Z" fill="white"/>
</mask>
<g mask="url(#mask2_36_598)">
<path d="M503.077 76.4037V66.1621H507.606C508.864 66.1621 509.842 66.5028 510.536 67.1877C511.096 67.7712 511.377 68.5105 511.377 69.3984V69.4274C511.377 70.2355 511.158 70.9024 510.723 71.4242C510.288 71.9461 509.698 72.3157 508.95 72.5296L511.693 76.4073H509.59L507.096 72.8376H504.86V76.4073H503.073L503.077 76.4037ZM504.863 71.2394H507.477C508.116 71.2394 508.623 71.0836 509.001 70.7719C509.378 70.4602 509.565 70.0471 509.565 69.5289V69.4999C509.565 68.9526 509.382 68.5359 509.015 68.2423C508.648 67.9488 508.131 67.8038 507.462 67.8038H504.863V71.243V71.2394Z" fill="white"/>
</g>
<path d="M513.311 76.4037V66.1621H515.093V71.3119L519.925 66.1621H522.117L517.894 70.5653L522.308 76.4037H520.144L516.675 71.7939L515.093 73.432V76.4037H513.311Z" fill="white"/>
<path d="M523.603 66.6731V66.1621H525.662V73.1565H523.603V66.6767V66.6731ZM523.603 74.3815H525.662V76.4H523.603V74.3815Z" fill="white"/>
<path d="M503.44 57.5625H502.444V60.6502H503.44V57.5625Z" fill="white"/>
<mask id="mask3_36_598" style="mask-type:luminance" maskUnits="userSpaceOnUse" x="469" y="40" width="62" height="61">
<path d="M531 40H469V101H531V40Z" fill="white"/>
</mask>
<g mask="url(#mask3_36_598)">
<path d="M506.326 57.562C505.64 57.562 505.09 58.015 505.09 58.5695V59.6386C505.09 60.1967 505.64 60.6461 506.326 60.6461C507.013 60.6461 507.57 60.1967 507.57 59.6386V58.5731C507.57 58.015 507.009 57.562 506.326 57.562ZM506.772 59.635C506.772 59.8379 506.574 59.9974 506.326 59.9974C506.078 59.9974 505.881 59.8379 505.881 59.635V58.5731C505.881 58.3738 506.078 58.2143 506.326 58.2143C506.574 58.2143 506.772 58.3738 506.772 58.5767V59.635Z" fill="white"/>
</g>
<path d="M514.098 57.5625H513.103V60.6502H514.098V57.5625Z" fill="white"/>
<mask id="mask4_36_598" style="mask-type:luminance" maskUnits="userSpaceOnUse" x="469" y="40" width="62" height="61">
<path d="M531 40H469V101H531V40Z" fill="white"/>
</mask>
<g mask="url(#mask4_36_598)">
<path d="M510.28 57.5625C509.594 57.5625 509.044 58.0155 509.044 58.57V59.6391C509.044 60.1972 509.594 60.6466 510.28 60.6466C510.967 60.6466 511.524 60.1972 511.524 59.6391V58.5736C511.524 58.0155 510.963 57.5625 510.28 57.5625ZM510.726 59.6355C510.726 59.8384 510.529 59.9979 510.28 59.9979C510.032 59.9979 509.835 59.8384 509.835 59.6355V58.5736C509.835 58.3743 510.032 58.2148 510.28 58.2148C510.529 58.2148 510.726 58.3743 510.726 58.5772V59.6355Z" fill="white"/>
</g>
<path d="M517.095 57.5625H516.1V60.6502H517.095V57.5625Z" fill="white"/>
<mask id="mask5_36_598" style="mask-type:luminance" maskUnits="userSpaceOnUse" x="469" y="40" width="62" height="61">
<path d="M531 40H469V101H531V40Z" fill="white"/>
</mask>
<g mask="url(#mask5_36_598)">
<path d="M520.205 60.65C519.518 60.65 518.961 60.2006 518.961 59.6425V58.577C518.961 58.0987 519.374 57.6964 519.921 57.5913C520.064 57.8051 520.201 58.0189 520.338 58.2364C520.295 58.2255 520.251 58.2183 520.205 58.2183C519.957 58.2183 519.759 58.3777 519.759 58.5807V59.6389C519.759 59.8418 519.957 60.0013 520.205 60.0013C520.453 60.0013 520.65 59.8418 520.65 59.6389V58.751C520.895 59.1678 521.132 59.5918 521.351 60.023C521.168 60.3927 520.726 60.6536 520.205 60.6536" fill="white"/>
</g>
<path d="M507.383 52.9126H506.388V56.0003H507.383V52.9126Z" fill="white"/>
<mask id="mask6_36_598" style="mask-type:luminance" maskUnits="userSpaceOnUse" x="469" y="40" width="62" height="61">
<path d="M531 40H469V101H531V40Z" fill="white"/>
</mask>
<g mask="url(#mask6_36_598)">
<path d="M503.469 52.9126C502.782 52.9126 502.232 53.3656 502.232 53.9201V54.9892C502.232 55.5473 502.782 55.9967 503.469 55.9967C504.156 55.9967 504.713 55.5473 504.713 54.9892V53.9237C504.713 53.3656 504.152 52.9126 503.469 52.9126ZM503.915 54.9856C503.915 55.1885 503.717 55.348 503.469 55.348C503.221 55.348 503.023 55.1885 503.023 54.9856V53.9237C503.023 53.728 503.221 53.5649 503.469 53.5649C503.717 53.5649 503.915 53.7244 503.915 53.9273V54.9856Z" fill="white"/>
</g>
<path d="M510.269 52.9126H509.273V56.0003H510.269V52.9126Z" fill="white"/>
<mask id="mask7_36_598" style="mask-type:luminance" maskUnits="userSpaceOnUse" x="469" y="40" width="62" height="61">
<path d="M531 40H469V101H531V40Z" fill="white"/>
</mask>
<g mask="url(#mask7_36_598)">
<path d="M513.156 52.9126C512.47 52.9126 511.92 53.3656 511.92 53.9201V54.9892C511.92 55.5473 512.47 55.9967 513.156 55.9967C513.843 55.9967 514.4 55.5473 514.4 54.9892V53.9237C514.4 53.3656 513.839 52.9126 513.156 52.9126ZM513.602 54.9856C513.602 55.1885 513.404 55.348 513.156 55.348C512.908 55.348 512.711 55.1885 512.711 54.9856V53.9237C512.711 53.728 512.908 53.5649 513.156 53.5649C513.404 53.5649 513.602 53.7244 513.602 53.9273V54.9856Z" fill="white"/>
<path d="M517.096 56.0006V53.9602C516.773 53.6341 516.442 53.3188 516.101 53.0107V56.0006H517.096Z" fill="white"/>
<path d="M492.096 91.2769C491.409 91.2769 490.859 91.7299 490.859 92.2843V93.3534C490.859 93.9115 491.409 94.3609 492.096 94.3609C492.782 94.3609 493.34 93.9115 493.34 93.3534V92.288C493.34 91.7299 492.779 91.2769 492.096 91.2769ZM492.542 93.3498C492.542 93.5528 492.344 93.7122 492.096 93.7122C491.848 93.7122 491.65 93.5528 491.65 93.3498V92.288C491.65 92.0923 491.848 91.9292 492.096 91.9292C492.344 91.9292 492.542 92.0886 492.542 92.2916V93.3498Z" fill="white"/>
</g>
<path d="M503.44 91.2769H502.444V94.3645H503.44V91.2769Z" fill="white"/>
<mask id="mask8_36_598" style="mask-type:luminance" maskUnits="userSpaceOnUse" x="469" y="40" width="62" height="61">
<path d="M531 40H469V101H531V40Z" fill="white"/>
</mask>
<g mask="url(#mask8_36_598)">
<path d="M506.326 91.2769C505.64 91.2769 505.09 91.7299 505.09 92.2843V93.3534C505.09 93.9115 505.64 94.3609 506.326 94.3609C507.013 94.3609 507.57 93.9115 507.57 93.3534V92.288C507.57 91.7299 507.009 91.2769 506.326 91.2769ZM506.772 93.3498C506.772 93.5528 506.574 93.7122 506.326 93.7122C506.078 93.7122 505.881 93.5528 505.881 93.3498V92.288C505.881 92.0923 506.078 91.9292 506.326 91.9292C506.574 91.9292 506.772 92.0886 506.772 92.2916V93.3498Z" fill="white"/>
<path d="M489.209 93.108V91.2778H488.213V92.6042C488.54 92.7782 488.874 92.9485 489.209 93.108Z" fill="white"/>
<path d="M510.28 93.3754L510.265 91.2734H509.27V93.7994C509.607 93.6653 509.945 93.524 510.276 93.3754" fill="white"/>
<path d="M513.066 91.9801L513.055 91.2734H512.06V92.56C512.397 92.3751 512.735 92.1794 513.066 91.9801Z" fill="white"/>
</g>
<path d="M488.594 86.79H487.599V89.8777H488.594V86.79Z" fill="white"/>
<path d="M497.369 86.79H496.373V89.8777H497.369V86.79Z" fill="white"/>
<path d="M494.943 86.79H493.947V89.8777H494.943V86.79Z" fill="white"/>
<mask id="mask9_36_598" style="mask-type:luminance" maskUnits="userSpaceOnUse" x="469" y="40" width="62" height="61">
<path d="M531 40H469V101H531V40Z" fill="white"/>
</mask>
<g mask="url(#mask9_36_598)">
<path d="M491.376 89.8775C492.063 89.8775 492.62 89.4281 492.62 88.87V87.8046C492.62 87.2465 492.059 86.7935 491.376 86.7935C490.693 86.7935 490.14 87.2465 490.14 87.8009V88.87C490.14 89.4281 490.69 89.8775 491.376 89.8775ZM490.93 87.8046C490.93 87.6089 491.128 87.4458 491.376 87.4458C491.624 87.4458 491.822 87.6052 491.822 87.8082V88.8664C491.822 89.0694 491.624 89.2288 491.376 89.2288C491.128 89.2288 490.93 89.0694 490.93 88.8664V87.8046Z" fill="white"/>
<path d="M484.968 86.79C484.281 86.79 483.731 87.243 483.731 87.7975V88.8666C483.731 89.4247 484.281 89.8741 484.968 89.8741C485.655 89.8741 486.212 89.4247 486.212 88.8666V87.8011C486.212 87.243 485.651 86.79 484.968 86.79ZM485.414 88.863C485.414 89.0659 485.216 89.2254 484.968 89.2254C484.72 89.2254 484.522 89.0659 484.522 88.863V87.8011C484.522 87.6054 484.72 87.4424 484.968 87.4424C485.216 87.4424 485.414 87.6018 485.414 87.8048V88.863Z" fill="white"/>
</g>
<path d="M507.75 86.79H506.754V89.8777H507.75V86.79Z" fill="white"/>
<mask id="mask10_36_598" style="mask-type:luminance" maskUnits="userSpaceOnUse" x="469" y="40" width="62" height="61">
<path d="M531 40H469V101H531V40Z" fill="white"/>
</mask>
<g mask="url(#mask10_36_598)">
<path d="M503.469 86.79C502.782 86.79 502.232 87.243 502.232 87.7975V88.8666C502.232 89.4247 502.782 89.8741 503.469 89.8741C504.156 89.8741 504.713 89.4247 504.713 88.8666V87.8011C504.713 87.243 504.152 86.79 503.469 86.79ZM503.915 88.863C503.915 89.0659 503.717 89.2254 503.469 89.2254C503.221 89.2254 503.023 89.0659 503.023 88.863V87.8011C503.023 87.6054 503.221 87.4424 503.469 87.4424C503.717 87.4424 503.915 87.6018 503.915 87.8048V88.863Z" fill="white"/>
</g>
<path d="M514.809 86.79H513.813V89.8777H514.809V86.79Z" fill="white"/>
<mask id="mask11_36_598" style="mask-type:luminance" maskUnits="userSpaceOnUse" x="469" y="40" width="62" height="61">
<path d="M531 40H469V101H531V40Z" fill="white"/>
</mask>
<g mask="url(#mask11_36_598)">
<path d="M510.816 86.79C510.129 86.79 509.579 87.243 509.579 87.7975V88.8666C509.579 89.4247 510.129 89.8741 510.816 89.8741C511.502 89.8741 512.059 89.4247 512.059 88.8666V87.8011C512.059 87.243 511.499 86.79 510.816 86.79ZM511.261 88.863C511.261 89.0659 511.064 89.2254 510.816 89.2254C510.568 89.2254 510.37 89.0659 510.37 88.863V87.8011C510.37 87.6054 510.568 87.4424 510.816 87.4424C511.064 87.4424 511.261 87.6018 511.261 87.8048V88.863Z" fill="white"/>
<path d="M482.182 88.2609C482.221 88.3008 482.261 88.3406 482.3 88.3769V86.7896H481.305V87.3114C481.581 87.6303 481.873 87.9492 482.182 88.2573" fill="white"/>
<path d="M517.527 88.62V86.7935H516.531V89.5369C516.869 89.2397 517.2 88.9353 517.527 88.62Z" fill="white"/>
<path d="M482.113 84.0937V83.0282C482.113 82.4701 481.552 82.0171 480.869 82.0171C480.186 82.0171 479.633 82.4701 479.633 83.0246V84.0937C479.633 84.6518 480.183 85.1012 480.869 85.1012C481.556 85.1012 482.113 84.6518 482.113 84.0937ZM481.315 84.09C481.315 84.293 481.117 84.4525 480.869 84.4525C480.621 84.4525 480.424 84.293 480.424 84.09V83.0282C480.424 82.8289 480.621 82.6694 480.869 82.6694C481.117 82.6694 481.315 82.8289 481.315 83.0318V84.09Z" fill="white"/>
</g>
<path d="M485.321 82.0171H484.325V85.1048H485.321V82.0171Z" fill="white"/>
<mask id="mask12_36_598" style="mask-type:luminance" maskUnits="userSpaceOnUse" x="469" y="40" width="62" height="61">
<path d="M531 40H469V101H531V40Z" fill="white"/>
</mask>
<g mask="url(#mask12_36_598)">
<path d="M488.709 82.0171C488.023 82.0171 487.473 82.4701 487.473 83.0246V84.0937C487.473 84.6518 488.023 85.1012 488.709 85.1012C489.396 85.1012 489.953 84.6518 489.953 84.0937V83.0282C489.953 82.4701 489.392 82.0171 488.709 82.0171ZM489.155 84.09C489.155 84.293 488.957 84.4525 488.709 84.4525C488.461 84.4525 488.263 84.293 488.263 84.09V83.0282C488.263 82.8325 488.461 82.6694 488.709 82.6694C488.957 82.6694 489.155 82.8289 489.155 83.0318V84.09Z" fill="white"/>
</g>
<path d="M492.922 82.0171H491.927V85.1048H492.922V82.0171Z" fill="white"/>
<path d="M503.44 82.0171H502.444V85.1048H503.44V82.0171Z" fill="white"/>
<mask id="mask13_36_598" style="mask-type:luminance" maskUnits="userSpaceOnUse" x="469" y="40" width="62" height="61">
<path d="M531 40H469V101H531V40Z" fill="white"/>
</mask>
<g mask="url(#mask13_36_598)">
<path d="M506.326 82.0171C505.64 82.0171 505.09 82.4701 505.09 83.0246V84.0937C505.09 84.6518 505.64 85.1012 506.326 85.1012C507.013 85.1012 507.57 84.6518 507.57 84.0937V83.0282C507.57 82.4701 507.009 82.0171 506.326 82.0171ZM506.772 84.09C506.772 84.293 506.574 84.4525 506.326 84.4525C506.078 84.4525 505.881 84.293 505.881 84.09V83.0282C505.881 82.8325 506.078 82.6694 506.326 82.6694C506.574 82.6694 506.772 82.8289 506.772 83.0318V84.09Z" fill="white"/>
</g>
<path d="M510.269 82.0171H509.273V85.1048H510.269V82.0171Z" fill="white"/>
<mask id="mask14_36_598" style="mask-type:luminance" maskUnits="userSpaceOnUse" x="469" y="40" width="62" height="61">
<path d="M531 40H469V101H531V40Z" fill="white"/>
</mask>
<g mask="url(#mask14_36_598)">
<path d="M513.153 82.0171C512.466 82.0171 511.916 82.4701 511.916 83.0246V84.0937C511.916 84.6518 512.466 85.1012 513.153 85.1012C513.839 85.1012 514.396 84.6518 514.396 84.0937V83.0282C514.396 82.4701 513.836 82.0171 513.153 82.0171ZM513.598 84.09C513.598 84.293 513.401 84.4525 513.153 84.4525C512.905 84.4525 512.707 84.293 512.707 84.09V83.0282C512.707 82.8325 512.905 82.6694 513.153 82.6694C513.401 82.6694 513.598 82.8289 513.598 83.0318V84.09Z" fill="white"/>
<path d="M517.096 82.0171C516.409 82.0171 515.859 82.4701 515.859 83.0246V84.0937C515.859 84.6518 516.409 85.1012 517.096 85.1012C517.782 85.1012 518.34 84.6518 518.34 84.0937V83.0282C518.34 82.4701 517.779 82.0171 517.096 82.0171ZM517.542 84.09C517.542 84.293 517.344 84.4525 517.096 84.4525C516.848 84.4525 516.65 84.293 516.65 84.09V83.0282C516.65 82.8325 516.848 82.6694 517.096 82.6694C517.344 82.6694 517.542 82.8289 517.542 83.0318V84.09Z" fill="white"/>
<path d="M520.942 84.177V82.0171H519.946V85.681C520.309 85.1773 520.636 84.6699 520.942 84.177Z" fill="white"/>
<path d="M470.617 61.3959C465.167 77.7766 473.924 95.5054 490.168 100.999V99.5897C482.644 97.0456 476.976 91.8451 473.442 84.684C469.909 77.5265 469.352 69.405 471.875 61.8199C474.395 54.2384 479.697 48.0992 486.8 44.5332C493.903 40.9707 501.955 40.4054 509.478 42.9495V41.6231C493.231 36.1326 476.066 45.0152 470.617 61.3959Z" fill="white"/>
<path d="M520.183 47.5559C526.596 53.1115 530.748 61.2729 530.985 70.4635C531.237 80.0926 527.894 87.8915 521.254 93.8096L521.262 92.1679C521.6 91.8055 521.172 92.2621 521.517 91.8961C526.977 86.094 529.871 78.4944 529.659 70.4961C529.45 62.5015 526.165 55.0649 520.41 49.56C520.047 49.2121 520.557 49.6687 520.18 49.3425V47.5522L520.183 47.5559Z" fill="white"/>
<path d="M522.947 82.0427C521.718 84.7209 520.018 87.1888 517.886 89.3379C513.116 94.147 506.779 96.7926 499.396 96.7926V98.0791C510.905 98.0791 520.244 91.4797 524.339 82.0391H522.947V82.0427Z" fill="white"/>
<path d="M488.258 48.991C483.168 51.9264 480.106 55.1337 477.96 59.0549C477.46 59.9646 477.029 60.8996 477.079 60.693H475.706C475.706 60.693 476.234 59.5478 476.846 58.4352C479.484 53.6189 482.446 50.3935 488.262 47.4326V48.991H488.258Z" fill="white"/>
<path d="M500.035 44.6025C499.823 44.6025 499.611 44.6025 499.398 44.6098V45.8963C499.611 45.8927 499.823 45.8891 500.035 45.8891C506.778 45.8891 513.119 48.5383 517.886 53.3437C520.334 55.8117 522.213 58.7037 523.191 60.6933H524.55C521.024 51.7673 511.365 44.6025 500.035 44.6025Z" fill="white"/>
<path d="M500.671 60.6498V44.6098C500.459 44.6062 500.247 44.6025 500.035 44.6025H499.398V60.6498H500.675H500.671Z" fill="white"/>
</g>
<path d="M500.673 82.0425H499.396V98.0825H500.673V82.0425Z" fill="white"/>
<mask id="mask15_36_598" style="mask-type:luminance" maskUnits="userSpaceOnUse" x="469" y="40" width="62" height="61">
<path d="M531 40H469V101H531V40Z" fill="white"/>
</mask>
<g mask="url(#mask15_36_598)">
<path d="M506.325 48.3608C505.639 48.3608 505.089 48.8138 505.089 49.3683V50.4374C505.089 50.9955 505.639 51.4449 506.325 51.4449C507.012 51.4449 507.569 50.9955 507.569 50.4374V49.3719C507.569 48.8138 507.008 48.3608 506.325 48.3608ZM506.771 50.4338C506.771 50.6367 506.573 50.7962 506.325 50.7962C506.077 50.7962 505.88 50.6367 505.88 50.4338V49.3719C505.88 49.1763 506.077 49.0132 506.325 49.0132C506.573 49.0132 506.771 49.1726 506.771 49.3756V50.4338Z" fill="white"/>
<path d="M496.336 48.2627C495.65 48.2627 495.1 48.7157 495.1 49.2702V50.3393C495.1 50.8974 495.65 51.3468 496.336 51.3468C497.023 51.3468 497.58 50.8974 497.58 50.3393V49.2738C497.58 48.7157 497.019 48.2627 496.336 48.2627ZM496.782 50.3357C496.782 50.5386 496.584 50.6981 496.336 50.6981C496.088 50.6981 495.89 50.5386 495.89 50.3357V49.2738C495.89 49.0781 496.088 48.915 496.336 48.915C496.584 48.915 496.782 49.0745 496.782 49.2774V50.3357Z" fill="white"/>
</g>
<path d="M493.027 48.2773L492.031 48.6108V51.3614H493.027V48.2773Z" fill="white"/>
<path d="M483.511 57.5767H482.516V60.6644H483.511V57.5767Z" fill="white"/>
<path d="M493.322 57.5767H492.326V60.6644H493.322V57.5767Z" fill="white"/>
<path d="M490.546 57.5767H489.551V60.6644H490.546V57.5767Z" fill="white"/>
<mask id="mask16_36_598" style="mask-type:luminance" maskUnits="userSpaceOnUse" x="469" y="40" width="62" height="61">
<path d="M531 40H469V101H531V40Z" fill="white"/>
</mask>
<g mask="url(#mask16_36_598)">
<path d="M486.527 57.5767C485.84 57.5767 485.29 58.0297 485.29 58.5841V59.6532C485.29 60.2113 485.84 60.6607 486.527 60.6607C487.213 60.6607 487.77 60.2113 487.77 59.6532V58.5878C487.77 58.0297 487.21 57.5767 486.527 57.5767ZM486.972 59.6496C486.972 59.8526 486.775 60.012 486.527 60.012C486.279 60.012 486.081 59.8526 486.081 59.6496V58.5878C486.081 58.3884 486.279 58.229 486.527 58.229C486.775 58.229 486.972 58.3884 486.972 58.5914V59.6496Z" fill="white"/>
<path d="M496.336 57.5767C495.65 57.5767 495.1 58.0297 495.1 58.5841V59.6532C495.1 60.2113 495.65 60.6607 496.336 60.6607C497.023 60.6607 497.58 60.2113 497.58 59.6532V58.5878C497.58 58.0297 497.019 57.5767 496.336 57.5767ZM496.782 59.6496C496.782 59.8526 496.584 60.012 496.336 60.012C496.088 60.012 495.89 59.8526 495.89 59.6496V58.5878C495.89 58.3884 496.088 58.229 496.336 58.229C496.584 58.229 496.782 58.3884 496.782 58.5914V59.6496Z" fill="white"/>
<path d="M488.708 51.3616C489.394 51.3616 489.952 50.9122 489.952 50.3541V49.2886C489.952 49.1763 489.926 49.0712 489.887 48.9697C489.639 49.0821 489.394 49.2017 489.154 49.3213V50.3505C489.154 50.5534 488.956 50.7129 488.708 50.7129C488.46 50.7129 488.262 50.5534 488.262 50.3505V49.7888C487.996 49.9373 487.73 50.0896 487.468 50.249V50.3541C487.468 50.9122 488.018 51.3616 488.704 51.3616" fill="white"/>
</g>
<path d="M486.37 52.9272H485.374V56.0149H486.37V52.9272Z" fill="white"/>
<path d="M489.119 52.9272H488.123V56.0149H489.119V52.9272Z" fill="white"/>
<mask id="mask17_36_598" style="mask-type:luminance" maskUnits="userSpaceOnUse" x="469" y="40" width="62" height="61">
<path d="M531 40H469V101H531V40Z" fill="white"/>
</mask>
<g mask="url(#mask17_36_598)">
<path d="M492.106 52.9272C491.419 52.9272 490.869 53.3803 490.869 53.9347V55.0038C490.869 55.5619 491.419 56.0113 492.106 56.0113C492.792 56.0113 493.349 55.5619 493.349 55.0038V53.9384C493.349 53.3803 492.789 52.9272 492.106 52.9272ZM492.551 55.0002C492.551 55.2031 492.354 55.3626 492.106 55.3626C491.858 55.3626 491.66 55.2031 491.66 55.0002V53.9384C491.66 53.7427 491.858 53.5796 492.106 53.5796C492.354 53.5796 492.551 53.739 492.551 53.942V55.0002Z" fill="white"/>
<path d="M496.336 52.9272C495.65 52.9272 495.1 53.3803 495.1 53.9347V55.0038C495.1 55.5619 495.65 56.0113 496.336 56.0113C497.023 56.0113 497.58 55.5619 497.58 55.0038V53.9384C497.58 53.3803 497.019 52.9272 496.336 52.9272ZM496.782 55.0002C496.782 55.2031 496.584 55.3626 496.336 55.3626C496.088 55.3626 495.89 55.2031 495.89 55.0002V53.9384C495.89 53.7427 496.088 53.5796 496.336 53.5796C496.584 53.5796 496.782 53.739 496.782 53.942V55.0002Z" fill="white"/>
<path d="M482.379 56.0147C483.065 56.0147 483.622 55.5654 483.622 55.0073V53.9418C483.622 53.7207 483.533 53.5178 483.389 53.3511C483.198 53.5323 483.008 53.7135 482.821 53.9019C482.821 53.9164 482.828 53.9309 482.828 53.9454V55.0036C482.828 55.2066 482.63 55.366 482.382 55.366C482.134 55.366 481.937 55.2066 481.937 55.0036V54.8333C481.728 55.0652 481.527 55.3008 481.329 55.54C481.545 55.8263 481.937 56.0184 482.382 56.0184" fill="white"/>
<path d="M479.492 60.6647C480.179 60.6647 480.736 60.2153 480.736 59.6572V58.5917C480.736 58.1133 480.323 57.7111 479.776 57.606C479.633 57.8198 479.496 58.0336 479.359 58.251C479.403 58.2402 479.446 58.2329 479.492 58.2329C479.74 58.2329 479.938 58.3924 479.938 58.5953V59.6535C479.938 59.8565 479.74 60.0159 479.492 60.0159C479.244 60.0159 479.047 59.8565 479.047 59.6535V58.7657C478.802 59.1824 478.565 59.6064 478.346 60.0377C478.529 60.4073 478.971 60.6683 479.492 60.6683" fill="white"/>
<path d="M496.552 91.2769C495.865 91.2769 495.315 91.7299 495.315 92.2843V93.3534C495.315 93.9115 495.865 94.3609 496.552 94.3609C497.239 94.3609 497.796 93.9115 497.796 93.3534V92.288C497.796 91.7299 497.235 91.2769 496.552 91.2769ZM496.998 93.3498C496.998 93.5528 496.8 93.7122 496.552 93.7122C496.304 93.7122 496.106 93.5528 496.106 93.3498V92.288C496.106 92.0923 496.304 91.9292 496.552 91.9292C496.8 91.9292 496.998 92.0886 496.998 92.2916V93.3498Z" fill="white"/>
<path d="M496.552 82.0176C495.865 82.0176 495.315 82.4706 495.315 83.0251V84.0942C495.315 84.6523 495.865 85.1016 496.552 85.1016C497.239 85.1016 497.796 84.6523 497.796 84.0942V83.0287C497.796 82.4706 497.235 82.0176 496.552 82.0176ZM496.998 84.0905C496.998 84.2935 496.8 84.4529 496.552 84.4529C496.304 84.4529 496.106 84.2935 496.106 84.0905V83.0287C496.106 82.833 496.304 82.6699 496.552 82.6699C496.8 82.6699 496.998 82.8294 496.998 83.0323V84.0905Z" fill="white"/>
</g>
</g>
<path d="M456 433.4H544M544 433.4L530.931 419M544 433.4L530.931 449" stroke="white" stroke-width="3" stroke-linejoin="round" stroke-dasharray="5.86 5.86"/>
</g>
<defs>
<clipPath id="clip0_36_598">
<rect width="1000" height="500" fill="white"/>
</clipPath>
<clipPath id="clip1_36_598">
<rect width="62" height="61" fill="white" transform="translate(469 40)"/>
</clipPath>
</defs>
</svg>
